<svg xmlns="http://www.w3.org/2000/svg" data-name="Capa 2" viewBox="0 0 413.17 330.54">
  <path d="m407.12 179.88.01-.01c.48-.48.93-.98 1.36-1.5.2-.24.37-.49.55-.74.22-.29.45-.58.65-.89.2-.29.37-.6.55-.9.17-.28.34-.55.49-.83.17-.31.3-.62.45-.94.14-.3.29-.59.41-.89.13-.3.23-.62.34-.93.12-.33.24-.65.34-.98.09-.31.16-.62.24-.94.09-.34.18-.68.25-1.02.07-.36.11-.73.17-1.09.04-.3.1-.6.13-.9.13-1.36.13-2.72 0-4.08-.03-.3-.09-.6-.13-.9-.05-.37-.1-.73-.17-1.09-.07-.35-.16-.68-.25-1.02-.08-.31-.15-.63-.24-.94-.1-.33-.23-.66-.34-.98-.11-.31-.21-.62-.34-.93-.13-.3-.27-.6-.41-.89-.15-.32-.29-.63-.45-.94-.15-.29-.33-.55-.49-.83-.18-.3-.35-.61-.55-.9-.2-.3-.43-.59-.65-.89-.18-.25-.36-.5-.55-.74-.43-.52-.88-1.02-1.36-1.5l-.01-.01L262.51 6.05c-8.07-8.07-21.15-8.07-29.22 0s-8.07 21.15 0 29.22l109.34 109.35H20.66C9.25 144.62 0 153.87 0 165.28s9.25 20.66 20.66 20.66h321.98L233.3 295.29c-8.07 8.07-8.07 21.15 0 29.22s21.15 8.07 29.22 0L407.13 179.9Z" data-name="Capa 1"/>
</svg>
