<?xml version="1.0" encoding="utf-8"?>
<!-- Generator: Adobe Illustrator 27.6.1, SVG Export Plug-In . SVG Version: 6.00 Build 0)  -->
<svg version="1.1" id="Capa_1" xmlns="http://www.w3.org/2000/svg" xmlns:xlink="http://www.w3.org/1999/xlink" x="0px" y="0px"
	 viewBox="0 0 80 80" style="enable-background:new 0 0 80 80;" xml:space="preserve">
<style type="text/css">
	.stig0{fill:#f7f7f7;}
</style>
<g>
	<g>
		<g>
			<path class="stig0" d="M55.1,4.1H24.9C13.4,4.1,4.1,13.4,4.1,25v30.1c0,11.5,9.4,20.9,20.9,20.9h30.1c11.5,0,20.9-9.4,20.9-20.9V25
				C75.9,13.4,66.5,4.1,55.1,4.1z M70.3,55.1c0,8.4-6.9,15.3-15.3,15.3H24.9c-8.4,0-15.3-6.9-15.3-15.3V25c0-8.4,6.9-15.3,15.3-15.3
				h30.1c8.4,0,15.3,6.9,15.3,15.3C70.3,25,70.3,55.1,70.3,55.1z"/>
		</g>
	</g>
	<g>
		<g>
			<path class="stig0" d="M40,20.6c-10.7,0-19.4,8.7-19.4,19.4S29.3,59.4,40,59.4S59.3,50.7,59.3,40S50.7,20.6,40,20.6z M40,53.8
				c-7.5,0-13.7-6.2-13.7-13.8S32.4,26.2,40,26.2S53.7,32.4,53.7,40S47.6,53.8,40,53.8z"/>
		</g>
	</g>
	<g>
		<g>
			<circle class="stig0" cx="59.6" cy="20.3" r="2.8"/>
		</g>
	</g>
</g>
</svg>
