<svg xmlns="http://www.w3.org/2000/svg" data-name="Capa 2" viewBox="0 0 744.92 750.01">
  <g data-name="Capa 1">
    <path d="M541.5 449.51c-9.5-4.5-55-27-63.5-30.5s-14.5-4.5-21 5-24 30-29.5 36.5-10.5 7-20 0a256.396 256.396 0 0 1-74.5-46 262.258 262.258 0 0 1-50-64.5c-5.5-9 0-14 4-19s9-10.5 14-16c3.66-4.76 6.68-9.97 9-15.5a19.019 19.019 0 0 0 0-16.5c0-4.5-21-50-29-68.5s-15-16-20.5-16h-20c-9.53.37-18.52 4.51-25 11.5a104.99 104.99 0 0 0-32.5 77.5c2.56 35.5 15.61 69.44 37.5 97.5a415.983 415.983 0 0 0 159.5 140c22 9.5 39 15 52.5 19.5 18.96 5.73 38.99 6.93 58.5 3.5 26.19-5.31 49-21.24 63-44a83.412 83.412 0 0 0 5.5-44c-2.5-3.5-8.5-6-18-10.5Z" class="d"/>
    <path d="M635 109.01A368.021 368.021 0 0 0 370.5.01C165.05 1.09-.62 168.51.45 373.95A371.99 371.99 0 0 0 50 557.51L0 750.01l197-50a369.94 369.94 0 0 0 177.5 45h-4c205.45 1.34 373.08-164.12 374.42-369.57.65-99.97-38.96-196-109.92-266.43Zm-264.5 572a306.034 306.034 0 0 1-157.5-43.5l-11-6.5-117 30.5 31-114-7-11.5C18.98 391.03 63.52 200.53 208.5 110.5 330 35.05 487.4 52.85 589 153.51a305.98 305.98 0 0 1 90.5 218.5c-.28 170.54-138.46 308.72-309 309Z" class="d"/>
  </g>
</svg>